<svg xmlns="http://www.w3.org/2000/svg" viewBox="0 0 520 420"><rect width="520" height="420" fill="white"/><g stroke="#07833f" stroke-width="18" fill="none"><path d="M45 235h95v-72h52V88h67L305 25l48 63h72v75h50v72h-92V112h-54L305 78l-27 34h-66v123H45z"/></g><path fill="#e52219" d="M156 235V103h92V56l57 58v40c-52 0-68 29-68 75v6h-81z"/><path fill="#e52219" d="M305 154c45 0 65 29 65 74v65l-31-25v-45c0-28-9-40-34-40z"/><path fill="#f7cf25" d="M140 170h48v65h-48z"/><path fill="#174b9b" d="M383 170h42v65h-42z"/><path fill="#174b9b" d="M276 185h29v72h-29z"/><text x="260" y="335" text-anchor="middle" font-family="Arial Black,Arial,sans-serif" font-size="62" font-weight="900">Wonderland</text><line x1="48" y1="357" x2="472" y2="357" stroke="#df2118" stroke-width="8"/><text x="260" y="402" text-anchor="middle" font-family="Arial,sans-serif" font-size="38" font-weight="700" fill="#777">원더랜드</text></svg>